<svg id="Layer_1" xmlns="http://www.w3.org/2000/svg" xmlns:xlink="http://www.w3.org/1999/xlink" viewBox="0 0 200 200"><style>.st0{fill:url(#SVGID_1_)}</style><image width="1920" height="1080" xlink:href="big-2.png" transform="translate(-213.952 218.025) scale(.1264)" overflow="visible"/><radialGradient id="SVGID_1_" cx="95.465" cy="97.272" r="77.777" gradientUnits="userSpaceOnUse"><stop offset="0" stop-color="#de280c"/><stop offset="1" stop-color="#de280c" stop-opacity=".3"/></radialGradient><path class="st0" d="M147.3 180.2c-1.1-1.8-2.7-2.9-4.7-3.4s-5.1-.7-9.2-.7H23.2c13-9.1 26.1-19.8 39.2-32.1 13.1-12.3 24.2-25.7 33.5-40 9.2-14.3 13.8-28.1 13.8-41.2 0-7.7-2.5-14.2-7.5-19.6-5-5.4-11.3-8-18.9-8-7 0-13.4 1.5-19.3 4.6-5.9 3-10.5 7.4-14 13.2-3.4 5.7-5.2 12.4-5.2 20l-5 1.2L29.7 33C41 27.1 52.5 22.5 64.1 19.2c11.6-3.3 23.1-4.9 34.5-4.9 9.5 0 18.9 1.7 28.4 5.2s17.3 8.7 23.5 15.7c6.2 7 9.3 15.4 9.3 25.3 0 6.6-1.4 13.1-4.3 19.5s-6.6 12.4-11.1 18-9.5 10.8-14.9 15.6-11.1 9.7-17.2 14.6l-17.5 13.7h42.7c6.4 0 11.5-.8 15.3-2.3 3.8-1.5 7.3-4.9 10.4-10.2l4.6 1.9-20.5 48.9z"/></svg>