<?xml version="1.0" encoding="utf-8"?>
<!-- Generator: Adobe Illustrator 21.1.0, SVG Export Plug-In . SVG Version: 6.00 Build 0)  -->
<svg version="1.1" id="Layer_1" xmlns="http://www.w3.org/2000/svg" xmlns:xlink="http://www.w3.org/1999/xlink" x="0px" y="0px"
	 viewBox="0 0 200 200" style="enable-background:new 0 0 200 200;" xml:space="preserve">
<style type="text/css">
	.st0{fill:url(#SVGID_1_);}
</style>
<image style="overflow:visible;" width="1920" height="1080" xlink:href="big-2.png"  transform="matrix(0.1264 0 0 0.1264 -213.9518 218.025)">
</image>
<g>
	<radialGradient id="SVGID_1_" cx="95.4651" cy="97.2725" r="77.7767" gradientUnits="userSpaceOnUse">
		<stop  offset="0" style="stop-color:#DE280C"/>
		<stop  offset="1" style="stop-color:#DE280C;stop-opacity:0.3"/>
	</radialGradient>
	<path class="st0" d="M147.3,180.2c-1.1-1.8-2.7-2.9-4.7-3.4c-2-0.5-5.1-0.7-9.2-0.7H23.2c13-9.1,26.1-19.8,39.2-32.1
		c13.1-12.3,24.2-25.7,33.5-40c9.2-14.3,13.8-28.1,13.8-41.2c0-7.7-2.5-14.2-7.5-19.6c-5-5.4-11.3-8-18.9-8c-7,0-13.4,1.5-19.3,4.6
		c-5.9,3-10.5,7.4-14,13.2c-3.4,5.7-5.2,12.4-5.2,20l-5,1.2L29.7,33c11.3-5.9,22.8-10.5,34.4-13.8c11.6-3.3,23.1-4.9,34.5-4.9
		c9.5,0,18.9,1.7,28.4,5.2s17.3,8.7,23.5,15.7c6.2,7,9.3,15.4,9.3,25.3c0,6.6-1.4,13.1-4.3,19.5c-2.9,6.4-6.6,12.4-11.1,18
		s-9.5,10.8-14.9,15.6s-11.1,9.7-17.2,14.6l-17.5,13.7h36.9h5.8c6.4,0,11.5-0.8,15.3-2.3c3.8-1.5,7.3-4.9,10.4-10.2l4.6,1.9
		L147.3,180.2z"/>
</g>
</svg>
